<svg width="30" height="30" viewBox="0 0 30 30" fill="none" xmlns="http://www.w3.org/2000/svg">
<g filter="url(#filter0_i_5_4)">
<path d="M19.7883 0.0462646C18.0891 0.462661 16.7602 1.92613 16.118 4.09091C15.818 5.10146 15.6867 6.35552 15.7852 7.26867C15.9773 9.07305 16.7977 10.4878 18.0141 11.1234C18.7031 11.4838 19.3852 11.5446 20.0273 11.3084C20.4773 11.1429 21.0844 10.7727 21.4805 10.4221C22.5328 9.49432 23.2828 8.06493 23.5641 6.45292C23.6602 5.90016 23.6836 5.62013 23.6812 5.00406C23.6812 3.82548 23.5219 2.96591 23.168 2.20373C22.6289 1.04464 21.7758 0.284901 20.7609 0.0584393C20.482 -0.00243664 20.018 -0.00730705 19.7883 0.0462646Z" fill="#425F57"/>
<path d="M8.95312 0.158278C8.01327 0.328732 7.12734 1.09821 6.59999 2.2013C6.31171 2.80276 6.17577 3.37987 6.11484 4.2638C6.08671 4.65097 6.10077 5.27191 6.14296 5.66153C6.38437 7.87256 7.37812 9.73539 8.87577 10.7776C9.17577 10.987 9.67265 11.2427 10.0101 11.3596C10.2492 11.4424 10.3101 11.4521 10.575 11.4643C10.9266 11.4789 11.1773 11.4448 11.4844 11.3425C11.9601 11.1843 12.3492 10.9359 12.7148 10.556C13.4391 9.80357 13.8891 8.66883 13.9945 7.33442C14.0367 6.78409 13.9898 5.96591 13.875 5.32549C13.4156 2.72727 11.9789 0.803571 10.0758 0.233766C9.69609 0.121753 9.30702 0.0949669 8.95312 0.158278Z" fill="#425F57"/>
<path d="M26.7258 9.04383C25.1578 9.31169 23.7937 10.4343 22.943 12.1607C22.5516 12.957 22.3547 13.6047 22.2023 14.6128C22.1484 14.9732 22.1391 15.1096 22.1391 15.5235C22.1391 16.03 22.1672 16.2808 22.268 16.6899C22.5375 17.7881 23.1726 18.6818 23.9625 19.0787C24.3937 19.2955 24.7875 19.3758 25.2305 19.3344C26.3062 19.237 27.2648 18.733 28.118 17.8174C29.0578 16.8068 29.7047 15.4091 29.9156 13.9407C29.9695 13.5755 30.007 12.8547 29.9906 12.5601C29.9039 11.0455 29.1211 9.71347 28.0312 9.22646C27.6094 9.03896 27.1453 8.97321 26.7258 9.04383Z" fill="#425F57"/>
<path d="M2.46305 9.68182C1.44352 9.85958 0.585708 10.5998 0.269302 11.5787C0.156802 11.9245 0.0630515 12.4188 0.0232078 12.8693C-0.122105 14.5032 0.43102 16.349 1.47165 17.7029C2.24977 18.7135 3.2529 19.4123 4.37555 19.7265C5.32008 19.9894 6.16852 19.7411 6.88805 18.9935C7.53024 18.3263 7.85133 17.3523 7.85133 16.069C7.85133 15.5698 7.8279 15.2971 7.74352 14.8344C7.45758 13.2468 6.5904 11.7273 5.40211 10.7313C4.85602 10.2735 4.12008 9.85227 3.65602 9.73295C3.2904 9.63799 2.82868 9.61851 2.46305 9.68182Z" fill="#425F57"/>
<path d="M14.625 15.6209C13.8094 15.7159 13.0031 15.9424 12.2086 16.3052C10.9945 16.8628 9.82266 17.7906 9.06563 18.7987C7.43203 20.9757 6.29766 23.3328 5.83594 25.5073C5.80781 25.6412 5.75859 25.8433 5.72813 25.9578C5.57109 26.5495 5.59688 27.2216 5.80078 27.8084C6.12891 28.7532 6.83906 29.4862 7.71797 29.793C8.24297 29.9757 9.02813 29.9732 9.90234 29.7833C10.4719 29.6615 10.8984 29.5203 12.1078 29.0552C13.7906 28.405 14.257 28.2808 15.3891 28.1713C15.8953 28.1226 15.9867 28.1201 16.3359 28.1469C17.2289 28.2127 17.9344 28.4148 19.2891 28.9895C20.4891 29.4984 21.1594 29.7735 21.3281 29.8222C23.0156 30.319 24.6914 29.7078 25.2656 28.3856C25.5164 27.8036 25.5445 26.8563 25.3336 25.9578C25.1273 25.0836 24.5156 23.664 23.9297 22.707C22.2773 20.0041 21.0984 18.5016 19.7344 17.3571C18.4523 16.2833 17.3766 15.7744 16.0523 15.6209C15.6797 15.5771 15.0047 15.5771 14.625 15.6209Z" fill="#425F57"/>
</g>
<defs>
<filter id="filter0_i_5_4" x="0.000289917" y="0.00919533" width="29.9942" height="30.9849" filterUnits="userSpaceOnUse" color-interpolation-filters="sRGB">
<feFlood flood-opacity="0" result="BackgroundImageFix"/>
<feBlend mode="normal" in="SourceGraphic" in2="BackgroundImageFix" result="shape"/>
<feColorMatrix in="SourceAlpha" type="matrix" values="0 0 0 0 0 0 0 0 0 0 0 0 0 0 0 0 0 0 127 0" result="hardAlpha"/>
<feOffset dy="3"/>
<feGaussianBlur stdDeviation="0.5"/>
<feComposite in2="hardAlpha" operator="arithmetic" k2="-1" k3="1"/>
<feColorMatrix type="matrix" values="0 0 0 0 0 0 0 0 0 0 0 0 0 0 0 0 0 0 0.25 0"/>
<feBlend mode="normal" in2="shape" result="effect1_innerShadow_5_4"/>
</filter>
</defs>
</svg>
